<svg height="960" viewBox="0 0 960 960" width="960" xmlns="http://www.w3.org/2000/svg"><path d="m215.663794 111.351267.250206.035733.368235.009497c81.759281 2.562705 146.876922 68.945069 148.171099 150.450473l.019633 2.47444v433.881171c0 80.047602-59.411342 147.657966-138.789438 157.937785l-3.683529.476634v562.38302c-.000014 10.93063-8.768738 19.81321-19.655511 19.99998h-15.344489c-11.0457 0-20-8.95431-20-20.00001l.000268-565.684476c-1.07989-.290716-2.156478-.594787-3.229553-.912165l-.024715-.007349-.462653-.120937c-.237737-.064472-.475429-.131237-.713054-.200309l-.712648-.214156-6.915195-2.146311c-9.62653-3.003037-17.220873-5.441566-22.870715-7.347053l-.384267-.129805c-4.321777-1.462153-8.550251-2.992332-12.685335-4.591195l-.127459-.041957c-50.0801628-16.26728-87.1480523-59.712776-94.5440834-112.771265l-.2171228-1.627223c-.7415654-5.817047-1.1134678-11.675277-1.1134678-17.539409v-444.086677c0-76.438333 57.8022986-140.139399 133.112121-148.102376l1.816879-.177327-1.093.107.037416-.005672c.855801-.111329 1.716488-.195125 2.580775-.250971l.532809-.029357.760465-.061271c3.162746-.235472 6.339132-.370912 9.525596-.405594l.607939-.002135 37.735245-1.615426c2.394794-.102479 4.750144.007971 7.047549.314693zm-28.663496 745.772958-.000298 561.875775h15l.000021-561.000699c-5.0273-.016514-10.033528-.309664-14.999723-.875076zm32.664299-704.559115h-1.146036c-2.14664.007354-4.343137.053709-6.532521.129503l-1.193162.044203c-9.534171.376066-18.735658 1.279549-22.870785 1.915717-45.921352 7.064765-80.884541 47.096937-80.884541 96.118046v468.142928c0 51.34142 38.351337 92.822819 87.476417 96.89711 3.235462.26834 7.608393 1.138408 10.929444 1.074351 2.679179.013171 4.964441.022979 6.855785.024313l2.346287.000155c1.047595 0 1.910827-.00415 2.589694-.010814l3.311072-.428989c59.438098-7.6975 103.926716-58.325739 103.926716-118.269052v-433.881171c0-53.53275-37.279622-98.581092-87.600575-110.131456-.027895.001872-.054615.001346-.081337.000831l-.096032-.041392c-1.800748-.410266-3.618141-.77765-5.451068-1.101007-2.821919-.297855-6.497227-.45824-11.02586-.480568zm-93.707047 10.22304-1.412717.672944c-36.423385 17.623502-61.544833 54.9369-61.544833 98.118609v444.086677c0 4.172934.2646467 8.341666.7923463 12.481089 3.959116 31.056415 21.9477699 56.891018 46.7875477 71.947891-14.8124192-19.750471-23.5423417-44.435996-23.5423417-71.179853v-468.142928c0-34.904954 14.9016557-66.435441 38.9199977-87.984429zm93.839904 8.273681c53.788796 1.878346 95.606357 48.912967 93.65361 104.832325s-46.949412 99.922359-100.738208 98.044013-95.606358-48.912967-93.653611-104.832325 46.949412-99.922359 100.738209-98.044013zm-80.750392 98.742003c-1.574479 45.087183 31.831909 82.661273 74.363784 84.146518 42.531874 1.485246 78.477922-33.667003 80.052402-78.754186 1.574479-45.087183-31.83191-82.661273-74.363784-84.146518-42.531875-1.485246-78.477923 33.667003-80.052402 78.754186zm721.952938-174.803834c43.07821 0 78 34.92179 78 78v200.297061c0 27.015729-20.687554 49.53161-47.606692 51.814079l-27.393308 2.32286v573.72232c0 10.93064-8.768729 19.81323-19.655511 19.99709l-.344489.00291h-15c-11.045695 0-20-8.9543-20-20l.000514-569.150479c-13.377678.649612-26.788352-.623429-39.820612-3.787466l-5.647902-1.371375-.271994.159115c-6.186333 3.554083-13.189947 5.879122-20.693332 6.62962l-.805832.074369-31.760842 2.685896v582.93963c0 10.93064-8.768729 19.81323-19.655511 19.9971l-.344489.0029h-15c-11.045695 0-20-8.9543-20-20l.000535-578.450182c-12.781879.463916-25.57793-.825599-38.029464-3.841011l-7.017071-1.699437c-5.981686 3.275366-12.684712 5.412025-19.826693 6.118189l-.766878.070173-38.360429 3.227638v591.239c0 10.93064-8.768729 19.81323-19.655511 20h-15.344489c-11.045695 0-20-8.95431-20-20l.000353-587.020953c-11.383688.085124-22.74883-1.218471-33.841977-3.891421l-27.534475-6.634572c-23.358107-5.628255-39.818957-26.526543-39.818957-50.552746l.000056-79.104308-.143665-.467984c-1.028438-3.450999-1.602199-7.087986-1.661335-10.836266v-65.06408c0-4.040312.605276-7.966424 1.739252-11.68033l.065748-.20834-.000056-38.801083c0-40.006756 30.24723-73.437973 69.871299-77.575657l1.203578-.116395.30768-.02619.594232-.048271.307567-.023791 38.653635-2.840077c.97539-.071666 1.95308-.107536 2.931099-.107536h50.325966c12.238773 0 23.956383 2.84668 34.424831 7.998342l.114169.057658.655785-.330391c8.285022-4.12584 17.37991-6.811659 26.937442-7.773129l.870132-.082649c.102496-.00916.205028-.017926.307592-.026295l.594053-.048477c.102462-.008361.204957-.016327.307481-.023898l36.949568-2.7285801c.980273-.0723892 1.96288-.1086208 2.945821-.1086208h48.271675c12.36416 0 24.184044 2.9040989 34.718891 8.1441199l.41356.20992.238468-.125384c8.526222-4.397148 17.94341-7.2597425 27.868097-8.264255l.903631-.0861916c.102482-.0091785.204999-.0179616.307548-.026349l.593963-.0485797c.102448-.0083791.204928-.0163633.307437-.0239524l35.175108-2.6041191c.982732-.0727546 1.967817-.1091692 2.953238-.1091692zm-330 351.444-15 1.262v588.294h15zm159-8.357-15 1.269v579.97963h15zm154-8.958-15 1.272v570.75532h15zm-247-179.456-29.34968 1.581518c-.271639.022161-.681093.052102-1.25994.090277-1.163231.076715-2.728404.167493-4.758618.272572-.487422.025227-1.061721.128862-1.804458.338802-.622406.175927-1.341304.419812-2.296954.777639-.226132.084672-.703287.26797-1.222171.468067l-.450095.173717c-.150184.058004-.298893.115471-.441245.170493l-.403105.155817c-.311893.120553-.553548.21389-.648691.250192-5.6339 2.149564-10.001637 3.280444-15.583113 3.585996-5.972522.326959-10.252013-.451761-15.814119-2.303134-1.544429-.520846-2.11741-.711567-2.688973-.884238-1.252287-.378319-1.965219-.491307-2.697737-.453393-2.068771.107075-4.020928.198422-5.758261.272336-.621696.026449-1.175528.048907-1.618943.065956-.256243.009746-.256243.009746-.426264.015873-.036985.001295-.05445.001906-.073042.002524l-25.434591 1.225986.000632 148.251714c0 2.209139 1.790861 4 4 4 .105049 0 .210057-.004139.31478-.012405l2.58951-.204416c2.191275-.172979 4.273232.374075 6.013182 1.442524 2.05086-.04526 4.102225-.154265 6.150825-.326657l82.667324-6.956519c.204613-.017218.407669-.039503.609049-.066723l.301255-.044591c.276817-.044546.550297-.098455.820122-.161382.313996-.07323.62291-.158629.926378-.255684l.282111-.094122c.039984-.013895.079868-.027995.119651-.042297.121275-.043594.241524-.089041.360806-.136333.324814-.128787.642547-.27129.952425-.426745.333528-.167307.657697-.349472.971939-.5457.23543-.147039.465743-.302266.690107-.465032.022892-.016553.045336-.032955.067719-.049433l-.067719.049433c.587849-.426458 1.134857-.90467 1.634622-1.427675.073233-.076497.145569-.154219.216867-.232884.79564-.877991 1.462254-1.873703 1.971367-2.956316.148292-.314872.283118-.637279.403909-.966288.167604-.457107.308339-.926962.420128-1.407543.04075-.1743.077532-.350256.110405-.527528.067177-.363185.118173-.732193.151975-1.105907.00775-.084085.014458-.168108.020292-.252357l.000545-.0099c.020498-.269572.029794-.542664.029794-.817779zm-162 57.554v80.689282c0 5.543322 3.796937 10.365238 9.185651 11.665309l20.094944 4.848401c-.006627-.23195-.009963-.464725-.009963-.698278l-.000632-95.859714-1.972018 1.158146c-1.805629 1.089804-3.971261 1.621447-6.238298 1.372487-.029956-.003489-.059302-.006815-.088643-.010272-.107585-.012615-.216112-.027243-.324833-.04368zm314-62.669-27.96298 1.506778c-.267066.021565-.660827.050226-1.209178.086389-1.139507.075151-2.672306.16405-4.660198.266939-.459946.023806-1.006575.122447-1.719036.323829-.602642.170341-1.301001.407258-2.231228.755566-.567652.212547-2.760305 1.063539-3.096598 1.191849-5.532623 2.110923-9.826928 3.222789-15.315289 3.523244-5.876009.321676-10.089198-.444979-15.556007-2.264632-1.512457-.510045-2.069928-.695604-2.625983-.863589-1.203913-.363706-1.878287-.470583-2.567575-.434907-2.025354.104828-3.936549.194259-5.63748.266624-.60873.025898-1.151048.047889-1.585306.064585-.251031.009549-.251031.009549-.417842.015559-.055619.001948-.066315.002322-.105089.003561l-24.653211 1.188205.00061 144.19265c0 2.209139 1.790861 4 4 4 .105049 0 .210057-.004138.31478-.012405l2.212419-.174648c2.931842-.23144 5.667988.826083 7.651119 2.696797 1.474347-.057618 2.94903-.149697 4.422274-.274561l79.755219-6.759618c6.212288-.52652 10.986579-5.72257 10.986579-11.957131zm-129.343 56.495h-2.657v88.678455c0 2.057322-.19495 4.07222-.567989 6.026352l3.323448.804773c-.064763-.718644-.097849-1.446424-.097849-2.18193zm279.343-61.591-27.52846 1.483296c-.262676.021274-.651225.049592-1.193767.085373-1.115299.073554-2.615067.160538-4.559775.261191-.431913.022355-.950308.115901-1.631878.308552-.582475.164641-1.259878.394449-2.164166.733044-.553539.207263-2.696547 1.038987-3.026491 1.164874-5.429287 2.071497-9.648667 3.163964-15.042019 3.459217-5.777534.316285-9.923073-.43806-15.292647-2.225349-.435245-.146771-.789332-.265971-1.086095-.365273l-.330126-.110103c-.509434-.169225-.827707-.27114-1.14549-.367144-1.154555-.348794-1.789589-.449436-2.434766-.416043-1.981055.102535-3.850455.19001-5.514244.260795-.595501.025335-1.12607.04685-1.550985.063186-.245713.009347-.245713.009347-.409248.015239-.032201.001128-.049068.001719-.065353.002265l-23.92849 1.15288.0007 140.061586c0 2.209139 1.790861 4 4 4 .105049 0 .210057-.004138.314781-.012405l1.827659-.144275c3.189711-.251796 6.147788 1.022082 8.15654 3.20896 1.421437-.058424 2.843013-.148377 4.26325-.268799l.03407-.003067 18.307-1.552 59.01384-5.003844c6.212109-.526724 10.98616-5.722696 10.98616-11.957095zm-126.904 54.266h-3.096v88.171084c0 1.705241-.133937 3.381349-.392211 5.017874l3.647366.885488c-.104664-.909778-.158455-1.835037-.158455-2.77286zm-329.096-50.703619v45.185l4.141.626v-45.494zm176.657-10.192381h-2.657v48.221h2.657zm152.439-7.325h-3.096v48.221h3.096zm-233.508226-37.890097-.346827.000754c-10.431472.111326-18.918706 8.688775-18.918706 19.119608v27.193225l.242888.014515c1.962619.133417 3.859328.501677 5.885622 1.080399l.611972.179905c.883589.266935 1.765848.560602 3.221469 1.053258 3.379586 1.124911 5.321191 1.478216 8.404496 1.309424 3.15551-.172745 5.677933-.825842 9.546841-2.30199.126415-.048232.824289-.318689 1.563203-.603873l.403927-.155768c.535493-.206313 1.041685-.400461 1.314537-.502626 1.42978-.535356 2.638048-.945259 3.870099-1.293508.699354-.197677 1.390264-.370006 2.078083-.515928l.479863-.096808.000659-27.003464c0-9.587672-8.0931-17.412061-18.358126-17.477123zm29.532888-45.515277c-.541001.090779-1.091832.137081-1.653478.137081h-54.196552c-15.463973 0-28 12.536027-28 28l-.000632 65.218293 15.052-.726.000566-27.993735c0-21.393536 17.311936-38.890161 38.704953-39.118469 21.395525-.228334 38.918381 16.482066 38.918381 37.47523l-.0009 25.630974 19.118997-1.029669c.315086-.016974.62755-.01917.936717-.007193l-.000714-50.688138c0-6.276097-1.521498-12.196828-4.215763-17.413464-.032726-.063361-.065289-.125977-.098021-.18849-.057685-.110171-.115985-.220193-.174808-.329893-.03704-.069075-.074187-.137837-.111538-.206471l.111538.206471c-.182136-.339667-.369285-.676243-.561348-1.009631-.021855-.037935-.0436-.075532-.065408-.113087l.065408.113087c-.110941-.192575-.223523-.384086-.337725-.574514l-.247519-.406926c-.042721-.069253-.085659-.138359-.128811-.207316l-.206332-.326028c-.022396-.034994-.044847-.069948-.067354-.104863l.067686.105382c-.208642-.326018-.422126-.64864-.640349-.967763-.052567-.076875-.105542-.153737-.158792-.230393l-.175862-.251003c-.068351-.096726-.137142-.193118-.206371-.289174l-.155616-.214345-.0214-.029232c-.060337-.08234-.120998-.164427-.18198-.24626-.054147-.07266-.108529-.145097-.163163-.217332l.163163.217332c-.091102-.122252-.182922-.243937-.275454-.365049l-.220671-.286015c-.031237-.040092-.062552-.08012-.093945-.120083l.094186.120392c-.112801-.144783-.226627-.288729-.341468-.431825l.247282.311433c-.112402-.143086-.225808-.285344-.340209-.426765l.092927.115332c-.359695-.448196-.729341-.888063-1.108605-1.319265-.123355-.140245-.247353-.279159-.37235-.41715-.608004-.671196-1.239372-1.320288-1.893058-1.946259l-.185167-.176135c-.038949-.036801-.077976-.073522-.11708-.11016l-.352159-.325829c-.204173-.186542-.410387-.370885-.618608-.552993-.219845-.192273-.441819-.381964-.665982-.569121-.033492-.027962-.066546-.055463-.099647-.08291l.099647.08291c-.157903-.131835-.316892-.262413-.476952-.391717l.377305.308807c-.137091-.113672-.274993-.226398-.413697-.33817-.076646-.061762-.153191-.122958-.229976-.183863l-.191414-.150834c-.040787-.03193-.081641-.063778-.122561-.095545l.12264.095606c-.137242-.107439-.275241-.213954-.413988-.319538l.291348.223932c-.151158-.117343-.303225-.233569-.45619-.348668l.164842.124736c-.12431-.094596-.24922-.188444-.374724-.281536l.209882.1568c-.236154-.177695-.474446-.3527-.714831-.524971-.034019-.02438-.06843-.048954-.102883-.073473l-.078068-.055408c-.193671-.137091-.388681-.272416-.585007-.40595l-.240268-.162087c-.051279-.03431-.102646-.068499-.154101-.102566l.154543.102861c-.187354-.125359-.375884-.249097-.565571-.371193l.411028.268332c-.178481-.118167-.358018-.234867-.538594-.350083l-.315102-.198886c-.076472-.047745-.153126-.095226-.229961-.142441l-.250974-.15289c-.053273-.032172-.106632-.064216-.160075-.096133l-.432871-.254647c-.195651-.113361-.392407-.225027-.590247-.334979l-.390645-.214111-.010468-.005655c-.057416-.031009-.114921-.061875-.172515-.092597l-.316409-.166866c-.061941-.032293-.123982-.064421-.186123-.096382-.127061-.065354-.254619-.130052-.382588-.194049-.065105-.032558-.130042-.064799-.195083-.096859l-.268069-.130827c-.068301-.033001-.136716-.065803-.205244-.098406l.20495.098263c-.380787-.183978-.765111-.361791-1.152842-.533308-.157442-.069647-.315583-.138314-.474277-.205933l-.197786-.083612c-.094056-.039446-.188305-.078525-.282743-.117235l.282475.117123c-.174567-.07321-.349796-.145155-.525676-.215822-.193182-.077619-.387148-.153697-.581884-.228219-.12037-.046064-.241099-.091557-.362119-.136451l.362119.136451c-.190998-.073091-.382735-.144685-.575199-.214768l.21308.078317c-.177437-.065823-.3555-.130359-.534176-.193596l.321096.115279c-.161898-.058952-.324309-.116835-.487226-.17364l.16613.058361c-.222603-.078784-.446159-.155553-.670646-.230284l-.520594-.169116c-.028248-.00895-.05651-.017868-.084786-.026754l-.027673-.008685-.379931-.116876c-.039929-.012053-.079885-.024042-.119869-.035967l-.163089-.04824c-.053244-.015619-.106537-.031124-.159878-.046516l.159836.046503c-.153819-.045121-.308042-.089295-.462664-.132516l.302828.086013c-.257481-.074296-.516086-.145942-.775783-.214908-.21842-.058007-.438168-.114255-.658674-.168577zm124.485309 41.680497-.339306.000708c-10.092301.107706-18.30449 8.407269-18.30449 18.498932v26.412937l.03818.002094c1.936541.131545 3.807228.494653 5.80402 1.064904l.603013.177266c.467428.141211.93447.290035 1.488278.472558l.497975.16531c.348858.11652.73418.246478 1.172225.394741 3.28429 1.093191 5.159593 1.434431 8.146385 1.270923 3.062395-.167648 5.511386-.801732 9.279017-2.239239.123156-.046988.806128-.311672 1.529601-.590895l.395517-.152524c.524388-.202033 1.020257-.392219 1.28784-.492411 1.404358-.525838 2.592086-.928773 3.804373-1.271435.689262-.194825 1.37037-.364696 2.048586-.508558l.300308-.060734v-26.25315c0-9.263071-7.822248-16.826716-17.751522-16.891427zm27.077569-44.785427-52.02593.000751c-15.463973 0-28 12.536027-28 28l-.00061 63.167553 14.305-.689.000408-27.194237c0-21.054367 17.036983-38.273105 38.090828-38.497793 21.056354-.224715 38.304257 16.223481 38.304257 36.88958l-.000493 24.85945 18.486469-.995368.156531-.006632v-48.531c0-17.999243-12.51413-33.075654-29.31646-37.003304zm123.968454 41.051434-.33518.000635c-9.746232.104012-17.677784 8.120039-17.677784 17.865635v25.619272l.400504.032643c1.708791.15753 3.379544.497935 5.149565 1.003383l.593872.174572c.852257.257469 1.703182.540706 3.094206 1.011539 3.187055 1.060827 4.994709 1.389757 7.883025 1.23164 2.967386-.162447 5.341452-.777132 9.005747-2.175211.228766-.087284 2.454558-.951137 3.142851-1.208856 1.378419-.516125 2.545191-.911951 3.737311-1.248913.678965-.191914 1.350072-.35928 2.01849-.501039l.116429-.023758v-25.487747c0-8.930771-7.54403-16.227671-17.129036-16.293795zm25.514894-44.168388-49.070188.000683c-15.463973 0-28 12.536027-28 28l-.0007 61.064575 13.543-.653.000169-26.3776c0-20.7083 16.75644-37.643502 37.464216-37.864496 20.710286-.221022 37.677645 15.959638 37.677645 36.292021l-.00003 24.072075 17.841031-.960207c.126759-.006828.253094-.011265.37896-.013349l-.000991-46.440444c0-18.183251-12.771305-33.383604-29.833112-37.120258zm-396.889113 7.805864-2.065801.151762-.594187.048322c-19.562993 1.743078-34.617787 18.14316-34.617787 37.849262v39.687048l3.387977-.846377c1.055638-.26391 2.147273-.353758 3.231855-.266l22.650168 1.831377.000632-51.902293c0-9.818524 2.947996-18.948506 8.007143-26.553101zm155.272005-3.067626-1.402975.104202-.593978.048563c-6.672745.597424-12.820351 2.900028-18.024052 6.457164 5.989272 9.125911 9.471225 20.042374 9.471225 31.772091v33.832h2.657l.00061-45.834553c0-9.743909 2.903361-18.809702 7.89217-26.379467zm152.38392-3.033117-.250317.019256-.593964.04858c-7.151383.640497-13.699535 3.239568-19.129174 7.242487 5.72432 8.987563 9.039755 19.659008 9.039755 31.104814v29.507h3.096l.0007-41.626575c0-9.707934 2.881962-18.742751 7.837-26.295562z"/></svg>