<svg height="960" viewBox="0 0 960 960" width="960" xmlns="http://www.w3.org/2000/svg"><path d="m379.211848 1.04838996 251.27614 8.59454858c44.433035 1.51976976 80.512012 37.82567606 80.512012 82.11939146v266.89167c0 6.717618-1.664878 13.081665-4.622753 18.675951l-.216247.401049 4.286 49.594.090636.558365c.270546 1.768939.425446 3.577221.456528 5.41718l.005836.691455v434.24567c0 44.293715-36.078977 80.599622-80.512012 82.119391l-251.27614 8.594549c-10.176495.348073-20.190694-1.185979-29.602052-4.477338l-.680796-.242272-.331407-.096038c-.908645-.271077-1.812973-.575963-2.711402-.915177l-.538337-.207652-41.481854-16.341133-.761797-.261617c-2.2641-.796955-4.488546-1.692909-6.667121-2.684983l-.484082-.2244-.045292-.020153-.628603-.291753c-27.438947-13.0253-45.279105-40.374458-45.279105-71.253167v-772.0476041c0-35.4944061 23.485051-65.7684627 56.901159-75.7073061l.692841-.2000168.060614-.0209333c1.090565-.3499528 2.203647-.6555368 3.337431-.9144216l.568608-.12554 47.321345-10.09183384c.715216-.15252831 1.429501-.28496439 2.14231-.39771978l.651692-.09655148.61374-.11179896c5.550214-.97306726 11.216605-1.36895983 16.922108-1.17381108zm291.788152 453.00261204-335.045708 1.053666c-.17296.000543-.345438-.001119-.517405-.004958l.000325 423.509776c0 16.615994 9.729774 30.635194 23.821625 36.892075l.749801.295159.089104-.142177c4.910348 2.128134 10.340511 3.315188 16.066102 3.344886.405415-.002453.811387-.010532 1.218716-.024442l251.672091-8.594548c23.165777-.791107 41.945349-19.659067 41.945349-42.142769zm-347.636969-402.7485334-3.459517.7379211.00146.0390959c-17.29455 4.4060895-29.904974 19.4752215-29.904974 37.8088373v772.0476041c0 15.57095 9.096277 28.787131 22.432566 35.117883l.034382.014182c1.630825.772046 3.324924 1.441159 5.073434 1.999067l1.632464.645424c-2.416479-6.550637-3.735634-13.655842-3.735634-21.102997l.000788-442.935486-4.398799-70.143525c-.216735-3.456547.467964-6.907356 1.983265-10.015631l.211774-.421701 2.20376-4.261143-.000788-269.4414863c0-11.0047274 2.880538-21.262764 7.925819-30.0880451zm9.297969 332.2395334 3.230413 51.562665 335.108587-1.054665v-.058002l-.124941.008-4.228271-48.936232c-.489172.071073-.989755.106709-1.499043.104231zm3.230413-27.785119-4.020413 7.781119 333.374519 1.630114c.14344.000701.28616.004419.4281.011093l5.20144-6.511115.124941-.014094v-.050998zm40.255329-314.7562796-.489126.0056169c-2.897009.049654-5.716212.3957934-8.428271 1.0101425l-.004486-.067807-1.616122.3434431c-17.434463 4.4755234-30.171525 20.0873128-30.171525 39.0985148l.000179 254.3708113c.20747-.004703.415463-.006197.623918-.004446l334.938691 2.846123v-246.840672c0-22.4837021-18.779572-41.3516623-41.945349-42.1427687l-251.672091-8.5945486c-.413363-.0141162-.82533-.0222264-1.235818-.0244093z"/></svg>